<svg width="21" height="18" fill="none" xmlns="http://www.w3.org/2000/svg"><path d="M19.376 9.27a5.35 5.35 0 0 0 0-7.677c-2.165-2.124-5.68-2.124-7.845 0l-1.05 1.052-1.05-1.03C7.266-.532 3.751-.532 1.608 1.592A5.34 5.34 0 0 0 0 5.443C0 6.894.579 8.26 1.608 9.292L10.48 18l8.895-8.73ZM1.372 5.444c0-1.094.428-2.104 1.222-2.861a4.15 4.15 0 0 1 2.915-1.199c1.05 0 2.1.4 2.915 1.199L10.48 4.58l2.058-2.02c1.607-1.577 4.244-1.577 5.83 0a3.99 3.99 0 0 1 1.222 2.862 3.906 3.906 0 0 1-1.222 2.86l-7.888 7.762-7.887-7.74c-.772-.779-1.222-1.789-1.222-2.861Z" fill="#000"/></svg>